<svg id="Layer_1" data-name="Layer 1" xmlns="http://www.w3.org/2000/svg" viewBox="0 0 119.72 30.23"><defs><style>.cls-1{fill:#63d35e;}.cls-2{fill:#e67f22;}.cls-3{fill:#52c14c;}.cls-4{fill:#e6e6e6;}.cls-5{fill:#f2f2f2;}</style></defs><title>logo</title><path class="cls-1" d="M55,17.28q8.84-.84,9.49,6.36h3.93a1.08,1.08,0,0,1,.27,1.69h-4.2a15.55,15.55,0,0,1-2.67,7.15c-1.24-.28-1.55-1-.93-2.23-2.21,0-5.07-.08-8.56-.24q-5.34-.84-5-4.8H43.78c-.44-.36-.44-.92,0-1.69h3.6A7.54,7.54,0,0,1,49.12,20c1.2-.2,1.67.18,1.42,1.14a6.62,6.62,0,0,0-1.2,2.34H56L55.5,21.6a.65.65,0,0,1,.68-.75,1,1,0,0,1,1,.45l.6,2.34h4.86q-.23-5-7.42-4.5C54.52,18.7,54.44,18.08,55,17.28Zm.77-13.4c.07-.28.32-.42.76-.42a1,1,0,0,1,.87.3V6.64h3.49a.67.67,0,0,1,.68.78.89.89,0,0,1-.79.9H57.24l-.11,2.29h3.49c.44.2.68.42.71.66s-.12.54-.49.9l-3.71.12v2.46l8.18.24c.66,0,1,.23,1,.69a.84.84,0,0,1-.76.87l-18.37-.36c-.55-.2-.71-.52-.49-1a.81.81,0,0,1,.81-.66l8,.12V12.17l-3.81-.12a.79.79,0,0,1-.77-.84c0-.4.29-.64.88-.72l3.7.12L55.5,8.2,49.67,8c-.55,0-.81-.25-.8-.75s.21-.77.58-.81l6.16.12Zm-6.6,21.33q0,2.7,3.49,3,4.85.18,9,.12a6.62,6.62,0,0,0,.93-3h-6l.49,2c-.65.48-1.19.48-1.63,0l-.55-2Z" transform="translate(-3.17 -2.25)"/><path class="cls-2" d="M73.38,12.47a16.41,16.41,0,0,1,4.91-.36q3.1,1.14,2.45,4.93A11.5,11.5,0,0,1,78.67,22,14.89,14.89,0,0,0,80,23a1.13,1.13,0,0,1-1,1.39,5.66,5.66,0,0,1-1.58-1.15A10,10,0,0,1,73,24.43,2.15,2.15,0,0,1,72.84,23a9.82,9.82,0,0,0,2.83-1.2A23.36,23.36,0,0,1,74,19.62c.15-1,.6-1.32,1.37-1.08A9.44,9.44,0,0,0,77.2,20.7a7.14,7.14,0,0,0,1.91-4.87c-.37-1.2-.93-1.82-1.69-1.86a25.93,25.93,0,0,0-3.82.24A1.19,1.19,0,0,1,73.38,12.47Zm8.56,11.66c-.43-.89-.31-1.45.39-1.69a36.16,36.16,0,0,0,8.06.48c.59.28.71.81.39,1.57C86.52,24.93,83.58,24.81,81.94,24.13Zm0-14.12,3.22-4.63c.73-.36,1.15,0,1.25,1.14l-3.1,4.69C82.22,11.45,81.76,11.05,81.94,10Zm1.75,5a1.73,1.73,0,0,1,1.2-.42.57.57,0,0,1,.54.66c-.29,1.53.26,2.35,1.64,2.47q7.91.9,8.4,4.68.32,5.6-4,8.11c-1.31,0-1.8-.6-1.48-1.68q4.42-1.68,3.6-6.91-1-2-7.8-2.76Q82.87,18.36,83.69,15.05Zm1.74-2.88a5.52,5.52,0,0,1,2.24.72c.54.48.51,1-.11,1.68l-2.62-.72C84.54,13,84.71,12.45,85.43,12.17Zm.28-3.25c3.38-.4,5.59.53,6.65,2.77a6.11,6.11,0,0,1-2,6.07c-.94,0-1.36-.4-1.25-1.21q2.23-2.28,1.64-4-.5-2.34-4.75-2a1,1,0,0,1-.57-.75A1.16,1.16,0,0,1,85.71,8.92Z" transform="translate(-3.17 -2.25)"/><path class="cls-2" d="M107,23a1.22,1.22,0,0,1,.55,1.63,12.26,12.26,0,0,1-6.27,1.44c-.77-.72-.71-1.38.16-2A13,13,0,0,0,107,23ZM102,9.83l4.86.66c.8.72.76,1.38-.11,2l-5.18-.78c-.4-.44-.57-.82-.49-1.14S101.41,10,102,9.83Zm.28,6.9A19.28,19.28,0,0,0,107,17c.69.72.55,1.38-.44,2a14.29,14.29,0,0,1-5-.54C101,17.52,101.21,16.94,102.23,16.73Zm7.3-10.27q3.77,0,7.69.24a2.19,2.19,0,0,1,1.88,1.92c.17,1.05-.39,2.09-1.66,3.13a27.26,27.26,0,0,0-5.07,3.66A47.1,47.1,0,0,1,119.13,17a6.27,6.27,0,0,1,3.71,5.34,9.79,9.79,0,0,1-2.18,7.21c-1,.12-1.42-.32-1.31-1.32q2.94-3.78,1-7.57a48.42,48.42,0,0,1-7.3,7.75c-1-.28-1.42-.76-1.31-1.44a47.12,47.12,0,0,0,7.58-7.69,8.66,8.66,0,0,0-2.73-1A45.27,45.27,0,0,1,111,22.8c-1-.12-1.38-.68-1-1.68a23.09,23.09,0,0,0,4-3.24c-1.2-.28-2.3-.58-3.32-.9a2,2,0,0,1-.22-2.53,46.43,46.43,0,0,1,5.67-4.2c.8-.6,1-1.15.6-1.63l-7.2-.3Q108.66,7.6,109.53,6.46Z" transform="translate(-3.17 -2.25)"/><path class="cls-1" d="M32.24,16.51H3.8a.63.63,0,0,0-.63.63A13.86,13.86,0,0,0,17,31h2A13.86,13.86,0,0,0,32.87,17.14.63.63,0,0,0,32.24,16.51Z" transform="translate(-3.17 -2.25)"/><path class="cls-3" d="M32.24,16.51H26.78a.64.64,0,0,1,.64.63A13.85,13.85,0,0,1,15.29,30.88,14.26,14.26,0,0,0,17,31h2A13.85,13.85,0,0,0,32.87,17.14a.63.63,0,0,0-.63-.63Z" transform="translate(-3.17 -2.25)"/><path class="cls-4" d="M13.4,15.09a1.21,1.21,0,0,1-1.21-1.2V6.23a1.21,1.21,0,0,1,2.42,0v7.66A1.2,1.2,0,0,1,13.4,15.09Zm-4.62,0a1.2,1.2,0,0,1-1.2-1.2V9A1.21,1.21,0,1,1,10,9v4.93A1.2,1.2,0,0,1,8.78,15.09Zm18.47,0a1.2,1.2,0,0,1-1.2-1.2V9a1.21,1.21,0,1,1,2.41,0v4.93A1.19,1.19,0,0,1,27.25,15.09Zm-9.23,0a1.21,1.21,0,0,1-1.21-1.2V3.46a1.21,1.21,0,0,1,2.42,0V13.89A1.21,1.21,0,0,1,18,15.09Zm4.62,0a1.21,1.21,0,0,1-1.21-1.2V6.23a1.21,1.21,0,0,1,2.41,0v7.66A1.2,1.2,0,0,1,22.64,15.09Z" transform="translate(-3.17 -2.25)"/><path class="cls-5" d="M13.4,5a1.21,1.21,0,0,0-1.21,1.2V10a1.21,1.21,0,0,1,2.42,0V6.23A1.21,1.21,0,0,0,13.4,5ZM8.78,7.76A1.21,1.21,0,0,0,7.58,9v3.77a1.21,1.21,0,0,1,2.41,0V9A1.2,1.2,0,0,0,8.78,7.76Zm18.47,0A1.21,1.21,0,0,0,26.05,9v3.77a1.21,1.21,0,0,1,2.41,0V9A1.2,1.2,0,0,0,27.25,7.76ZM18,2.26a1.21,1.21,0,0,0-1.21,1.2V7.24a1.21,1.21,0,0,1,2.42,0V3.46A1.21,1.21,0,0,0,18,2.26ZM22.64,5a1.21,1.21,0,0,0-1.21,1.2V10a1.21,1.21,0,1,1,2.41,0V6.23A1.2,1.2,0,0,0,22.64,5Z" transform="translate(-3.17 -2.25)"/></svg>